#!OML:ASF F:\VICON\USERDATA\INSTALL\rory3\rory3.ASF
:FULLY-SPECIFIED
:DEGREES
4035
root 1.22951 17.921 4.33099 -718.102 51.3658 5.5585
lowerback 12.4081 1.8329 0.646842
upperback 1.0442 2.54991 0.0418021
thorax -5.83206 1.24649 -0.759902
lowerneck -19.4921 -2.23697 -10.7772
upperneck 34.8581 -0.717521 5.38962
head 15.6795 -0.774305 4.12901
rclavicle -3.27995e-014 0
rhumerus -34.3505 -12.8448 -73.0619
rradius 36.2109
rwrist 3.51778
rhand -18.9102 9.75335
rfingers 7.12502
rthumb 7.39187 -20.0975
lclavicle -3.27995e-014 0
lhumerus -33.966 2.85002 84.4934
lradius 35.3454
lwrist -4.69897
lhand -20.8054 26.2419
lfingers 7.12502
lthumb 5.56227 56.1489
rfemur -2.19521 0.991659 10.7616
rtibia 24.9462
rfoot -16.2287 -0.878328
rtoes -8.96682
lfemur -8.30677 -9.58203 -3.94835
ltibia 22.6194
lfoot 4.23661 5.49178
ltoes 7.9298
4036
root 1.30199 17.9116 4.2608 -718.051 51.3179 5.58602
lowerback 12.3571 1.85076 0.715353
upperback 1.01569 2.57975 -0.000837057
thorax -5.82827 1.25869 -0.846919
lowerneck -19.5114 -2.28864 -10.7506
upperneck 34.8278 -0.828459 5.44807
head 15.6811 -0.808707 4.12817
rclavicle 6.96243e-014 -7.15625e-015
rhumerus -34.4557 -13.0785 -72.8763
rradius 36.0543
rwrist 3.72556
rhand -19.0764 9.33047
rfingers 7.12502
rthumb 7.23138 -20.526
lclavicle 6.96243e-014 -7.15625e-015
lhumerus -33.9477 2.83638 84.4382
lradius 35.3545
lwrist -4.90452
lhand -20.7122 26.1862
lfingers 7.12502
lthumb 5.65221 56.0908
rfemur -2.1367 1.18331 10.4246
rtibia 24.8044
rfoot -16.3598 -1.18985
rtoes -11.5567
lfemur -8.0301 -9.94384 -3.72428
ltibia 22.0844
lfoot 5.57362 5.13442
ltoes 6.32337
4037
root 1.37671 17.9021 4.19272 -717.895 51.2676 5.76685
lowerback 12.2721 1.91404 0.5844
upperback 0.997108 2.6455 0.0102867
thorax -5.80589 1.29436 -0.769978
lowerneck -19.4089 -2.32133 -10.6894
upperneck 34.7004 -0.871617 5.32746
head 15.5996 -0.83285 4.04898
rclavicle 1.28216e-014 -2.06736e-014
rhumerus -34.5189 -13.2765 -72.5628
rradius 35.8739
rwrist 3.809
rhand -19.1128 9.01441
rfingers 7.12502
rthumb 7.19623 -20.8432
lclavicle 1.28216e-014 -2.06736e-014
lhumerus -33.913 2.94804 84.5345
lradius 35.322
lwrist -5.1743
lhand -20.9125 26.6404
lfingers 7.12502
lthumb 5.45885 56.55
rfemur -2.02821 1.39676 9.97465
rtibia 24.6636
rfoot -16.3155 -1.4002
rtoes -12.5789
lfemur -7.68891 -10.3759 -3.62147
ltibia 21.541
lfoot 6.74988 4.68561
ltoes 5.71931
4038
root 1.45611 17.8914 4.12456 -717.664 51.2919 6.11918
lowerback 12.2165 1.95138 0.338518
upperback 1.0059 2.66181 0.0201346
thorax -5.77703 1.30889 -0.621903
lowerneck -19.4195 -2.35033 -10.6573
upperneck 34.7136 -0.856403 5.14686
head 15.6079 -0.847985 3.96812
rclavicle -8.16011e-014 -1.59028e-015
rhumerus -34.593 -13.4965 -72.1883
rradius 35.594
rwrist 3.94378
rhand -19.2987 9.21093
rfingers 7.12502
rthumb 7.01684 -20.6528
lclavicle -8.16011e-014 -1.59028e-015
lhumerus -33.7152 3.47449 84.5386
lradius 34.9876
lwrist -5.79313
lhand -20.7719 27.0121
lfingers 7.12502
lthumb 5.59458 56.9183
rfemur -1.80257 1.38587 9.36507
rtibia 24.5032
rfoot -16.295 -1.52117
rtoes -13.8385
lfemur -7.22377 -10.9337 -3.69422
ltibia 20.9313
lfoot 7.89972 4.02252
ltoes 6.56587
4039
root 1.54322 17.8852 4.05792 -717.464 51.3063 6.52864
lowerback 12.1378 1.93207 0.111216
upperback 1.06659 2.60346 -0.0170285
thorax -5.67811 1.28649 -0.518835
lowerneck -19.5216 -2.33315 -10.6472
upperneck 34.802 -0.821448 5.14962
head 15.671 -0.833729 3.97945
rclavicle -2.19657e-014 1.43125e-014
rhumerus -34.6225 -13.7089 -71.9042
rradius 35.2615
rwrist 4.19093
rhand -19.4933 9.64207
rfingers 7.12502
rthumb 6.82893 -20.2278
lclavicle -2.19657e-014 1.43125e-014
lhumerus -33.1694 4.92212 84.151
lradius 33.9456
lwrist -7.16586
lhand -20.641 26.2563
lfingers 7.12502
lthumb 5.72092 56.159
rfemur -1.50087 1.40256 8.68449
rtibia 24.3639
rfoot -16.2709 -1.47436
rtoes -14.0885
lfemur -6.61948 -11.397 -3.90846
ltibia 20.263
lfoot 8.98221 3.13172
ltoes 7.24303
4040
root 1.6302 17.8813 3.99049 -717.447 51.306 6.66246
lowerback 12.0024 1.90682 -0.0144915
upperback 1.13763 2.55598 0.0230846
thorax -5.5355 1.26783 -0.391555
lowerneck -19.561 -2.29085 -10.6292
upperneck 34.7527 -0.775988 5.18009
head 15.65 -0.807242 3.99582
rclavicle -5.81942e-014 -1.43125e-014
rhumerus -34.6236 -14.0617 -71.5508
rradius 35.0417
rwrist 4.31199
rhand -19.4056 9.73303
rfingers 7.12502
rthumb 6.91362 -20.1341
lclavicle -5.81942e-014 -1.43125e-014
lhumerus -33.04 5.56589 84.0494
lradius 33.7657
lwrist -7.84612
lhand -20.7999 25.697
lfingers 7.12502
lthumb 5.56754 55.6039
rfemur -1.25967 1.77092 8.22645
rtibia 24.2364
rfoot -16.2212 -1.43511
rtoes -11.9628
lfemur -6.05573 -11.7537 -3.9583
ltibia 19.6545
lfoot 9.72544 2.27648
ltoes 6.47861
4041
root 1.71411 17.8669 3.92072 -717.746 51.3596 6.4051
lowerback 11.9635 1.84883 0.0385521
upperback 1.17738 2.49436 0.159854
thorax -5.47614 1.23835 -0.265822
lowerneck -19.5279 -2.23829 -10.6541
upperneck 34.5728 -0.711967 5.20832
head 15.5471 -0.776298 4.01455
rclavicle -2.80286e-014 -1.35174e-014
rhumerus -34.6204 -14.5551 -71.1323
rradius 34.8927
rwrist 4.2349
rhand -19.3163 9.69934
rfingers 7.12502
rthumb 6.99984 -20.1649
lclavicle -2.80286e-014 -1.35174e-014
lhumerus -32.9902 5.90481 84.0575
lradius 33.7109
lwrist -8.12846
lhand -20.9987 25.7631
lfingers 7.12502
lthumb 5.37559 55.6749
rfemur -1.01681 2.11924 8.0541
rtibia 24.1528
rfoot -16.2152 -1.4315
rtoes -9.49485
lfemur -5.52164 -12.0876 -3.73846
ltibia 19.1276
lfoot 9.69454 1.4509
ltoes 2.75372
4042
root 1.80019 17.8459 3.84639 -717.971 51.352 6.1693
lowerback 11.9223 1.81322 0.164418
upperback 1.16025 2.46679 0.217304
thorax -5.46857 1.2225 -0.270838
lowerneck -19.5301 -2.22719 -10.6532
upperneck 34.4818 -0.72634 5.27354
head 15.5043 -0.771558 4.0354
rclavicle 1.04113e-013 -1.59028e-014
rhumerus -34.7294 -15.1234 -70.7436
rradius 34.8101
rwrist 4.22415
rhand -19.2058 9.81894
rfingers 7.12502
rthumb 7.10646 -20.0417
lclavicle 1.04113e-013 -1.59028e-014
lhumerus -32.998 5.92152 84.0375
lradius 33.6941
lwrist -8.05269
lhand -20.88 25.9371
lfingers 7.12502
lthumb 5.49023 55.846
rfemur -0.892582 2.07781 7.78121
rtibia 24.1248
rfoot -16.2384 -1.31716
rtoes -9.17493
lfemur -5.09647 -12.3454 -3.58848
ltibia 18.7493
lfoot 9.02948 0.79309
ltoes -3.34439
4043
root 1.88946 17.8233 3.76531 -717.964 51.3187 6.08383
lowerback 11.791 1.82118 0.301068
upperback 1.10667 2.49347 0.205858
thorax -5.44546 1.23214 -0.36041
lowerneck -19.6232 -2.25404 -10.5934
upperneck 34.5287 -0.796184 5.31932
head 15.5553 -0.787776 4.03552
rclavicle 7.89175e-014 5.56597e-015
rhumerus -34.8868 -15.7387 -70.3417
rradius 34.6821
rwrist 4.36673
rhand -19.0403 9.7966
rfingers 7.12502
rthumb 7.26629 -20.0586
lclavicle 7.89175e-014 5.56597e-015
lhumerus -32.9357 6.17404 83.93
lradius 33.6103
lwrist -8.1177
lhand -20.4944 25.784
lfingers 7.12502
lthumb 5.86255 55.6829
rfemur -0.963569 1.80652 7.32753
rtibia 24.1759
rfoot -16.2487 -1.13079
rtoes -10.1689
lfemur -4.85241 -12.4328 -3.5825
ltibia 18.5526
lfoot 8.20515 0.131746
ltoes -9.11208
4044
root 1.9812 17.7947 3.67839 -718.072 51.2999 5.92588
lowerback 11.7706 1.83066 0.511558
upperback 1.03206 2.53458 0.233534
thorax -5.50459 1.2469 -0.45727
lowerneck -19.5517 -2.27381 -10.4577
upperneck 34.4994 -0.865354 5.26151
head 15.5301 -0.806041 3.97171
rclavicle -3.16068e-014 -2.14687e-014
rhumerus -35.0691 -16.1703 -69.9205
rradius 34.5186
rwrist 4.26599
rhand -19.2956 9.73828
rfingers 7.12502
rthumb 7.01985 -20.1253
lclavicle -3.16068e-014 -2.14687e-014
lhumerus -33.1658 5.31497 84.2157
lradius 34.0675
lwrist -6.89819
lhand -20.2599 26.0457
lfingers 7.12502
lthumb 6.08888 55.9382
rfemur -1.01075 1.65865 6.92343
rtibia 24.3026
rfoot -16.3389 -1.00394
rtoes -11.2683
lfemur -4.58133 -12.2846 -3.56972
ltibia 18.469
lfoot 7.20529 -0.717421
ltoes -13.1798
4045
root 2.07511 17.7607 3.59014 -718.267 51.1986 5.72843
lowerback 11.7959 1.83362 0.70705
upperback 0.961915 2.56612 0.267815
thorax -5.58531 1.25703 -0.538817
lowerneck -19.4194 -2.28707 -10.3455
upperneck 34.4298 -0.926068 5.20852
head 15.4703 -0.82272 3.91307
rclavicle 1.35174e-014 -1.82882e-014
rhumerus -35.3471 -16.7752 -69.4577
rradius 34.5139
rwrist 4.36815
rhand -19.3954 9.75956
rfingers 7.12502
rthumb 6.92351 -20.1072
lclavicle 1.35174e-014 -1.82882e-014
lhumerus -33.2412 5.56573 84.1431
lradius 34.0691
lwrist -6.84656
lhand -20.0835 25.5302
lfingers 7.12502
lthumb 6.25917 55.4178
rfemur -1.02779 1.73058 6.55954
rtibia 24.4564
rfoot -16.4261 -0.926641
rtoes -12.0797
lfemur -4.2078 -12.0801 -3.6123
ltibia 18.4032
lfoot 6.00503 -1.62446
ltoes -16.992
